<svg width="122" height="20" viewBox="0 0 122 20" fill="none" xmlns="http://www.w3.org/2000/svg">
<path d="M16.1447 11.0828H6.47617C5.1545 11.0828 4.17342 12.073 4.17342 13.7734V19.95H0V13.9985C0 10.6577 2.135 8.4021 5.1545 8.4021H14.9348C17.3291 8.31208 17.9035 7.14179 17.9035 5.44136C17.9035 4.14104 17.2427 2.36059 14.9348 2.54064H0V0.0900208H16.1447C20.374 0.0900208 22.0413 2.49563 22.0413 5.44136C22.0413 8.7872 20.374 11.0828 16.1447 11.0828ZM33.8753 5.47137V14.5386C33.8753 17.8545 32.3554 19.92 28.1515 19.92H19.1184V17.4694H26.9976C28.6141 17.4694 29.5748 16.179 29.5748 14.5386V5.47137C29.5748 2.58064 30.9982 0.0850223 35.1767 0.0850223H44.1488V2.53563H36.3865C34.2922 2.45061 33.8753 4.13603 33.8753 5.47137ZM58.4787 19.995C56.7961 19.905 56.0895 18.6447 55.7743 18.1095C55.4541 17.5744 46.0143 0.0600154 46.0143 0.0600154H50.7113L58.5295 14.3386C58.9362 15.1388 59.8613 15.3388 60.3595 14.3986L68.137 0.0600154H71.0701C71.0701 0.0600154 61.9302 17.0843 61.5642 17.6644C61.2033 18.2496 60.1613 20.085 58.4787 19.995ZM73.7541 0.130033H78.0241V19.935H73.7541V0.130033ZM92.9182 2.43061L92.9335 19.82H88.7347V2.45061L80.7538 2.44061V0.0250068L100.95 0L100.94 2.44561L92.9182 2.43061ZM109.363 0.0250068C107.767 0.0500131 106.77 1.79545 106.42 2.36059C106.059 2.94074 96.8985 20 96.8985 20H99.8367L102.073 15.799H114.99L117.298 20H122C122 20 112.545 2.45562 112.225 1.91548C111.91 1.38035 111.203 0.115029 109.515 0.0250068H109.363ZM108.448 5.00625C108.844 4.98125 109.236 5.24131 109.465 5.69642L113.658 13.3233H103.471L107.629 5.63141C107.848 5.22131 108.143 5.03126 108.448 5.00625Z" fill="white"/>
</svg>
