<svg width="89" height="19" viewBox="0 0 89 19" fill="none" xmlns="http://www.w3.org/2000/svg">
<path d="M56.9674 0.0110869H45.2936C41.6965 0.0110869 39.9313 2.22899 39.9313 5.11226V13.8545C39.9313 15.6399 39.0858 16.9226 37.2984 16.9226H27.0857C27.0512 16.9226 27.0182 16.9362 26.9939 16.9605C26.9695 16.9847 26.9559 17.0176 26.9559 17.0519V18.7893C26.9559 18.8632 26.993 18.9076 27.0671 18.9076H38.6C42.1971 18.9076 43.9771 16.7008 43.9771 13.8175V5.08269C43.9771 3.29358 44.8078 2.0072 46.61 2.0072H56.9229C56.9971 2.0072 57.0713 1.95544 57.0713 1.88521V0.129377C57.0713 0.0554469 56.9971 0 56.9229 0L56.9674 0.0110869ZM22.606 0.0110869H0.140917C0.0593333 0.0110869 0 0.0739304 0 0.140467V1.90369C0 1.97762 0.0593333 2.03677 0.140917 2.03677H21.2562C23.0362 2.03677 23.8891 3.31945 23.8891 5.10486C23.8891 6.89027 23.0436 8.17296 21.2562 8.17296H4.55383C1.958 8.17296 0.00370833 10.3391 0.00370833 13.2187V18.8115C0.00370833 18.8854 0.077875 18.9482 0.152042 18.9482H3.97162C4.04579 18.9482 4.11996 18.8891 4.11996 18.8115V13.2187C4.11996 11.4444 5.15829 10.1875 6.64162 10.1875H22.6208C26.2179 10.1875 27.9757 7.99183 27.9757 5.10856C27.9757 2.23268 26.2216 0.00739246 22.6283 0.00739246L22.606 0.0110869ZM87.3275 9.24494C87.3004 9.2173 87.2851 9.18014 87.2851 9.14144C87.2851 9.10274 87.3004 9.06558 87.3275 9.03794C88.44 8.11381 88.9963 6.72023 88.9963 5.11226C88.9963 2.23638 87.2385 0.0110869 83.634 0.0110869H61.1727C61.0985 0.0110869 61.0392 0.0776243 61.0392 0.151554V1.90739C61.0392 1.98132 61.1133 2.05525 61.1875 2.05525H82.325C84.105 2.05525 84.9765 3.34903 84.9765 5.12335C84.9765 6.89766 84.1235 8.19144 82.3361 8.19144H61.1986C61.1245 8.19144 61.0651 8.26537 61.0651 8.3393V10.1136C61.0651 10.1875 61.1245 10.2356 61.2023 10.2356H82.3398C84.6761 10.2615 84.9727 12.5274 84.9727 13.6733V13.8951C84.9727 15.6879 84.1198 16.9743 82.3398 16.9743H61.2023C61.1282 16.9743 61.0688 17.0298 61.0688 17.1V18.8632C61.0688 18.9372 61.1245 19 61.2023 19H83.6377C87.246 19 89 16.6158 89 13.8988V13.6881C89 11.9508 88.4437 10.3021 87.3312 9.2893L87.3275 9.24494Z" fill="white"/>
</svg>
