<svg width="89" height="19" viewBox="0 0 89 19" fill="none" xmlns="http://www.w3.org/2000/svg">
<path d="M45.6199 13.8721V5.02789C45.6199 3.22719 46.4617 1.93779 48.2603 1.93779H59.3482C59.4112 1.93779 59.478 1.8711 59.478 1.80441V0.0444621C59.478 0.0296415 59.478 0.0148206 59.4668 0H45.8943C42.9573 0.370515 41.5185 2.41946 41.5185 5.02789V13.8684C41.5185 15.6543 40.6545 16.9473 38.8856 16.9473H27.1895C27.1227 16.9473 27.056 16.9918 27.056 17.0807V18.8407C27.056 18.9148 27.0931 18.9704 27.1413 18.9889H40.432C43.8918 18.8963 45.5977 16.6917 45.5977 13.8573L45.6199 13.8721ZM0.089 19H3.98275C4.01128 18.9874 4.03537 18.9666 4.05189 18.9401C4.06842 18.9137 4.07663 18.8829 4.07546 18.8518V13.22C4.07546 11.4156 5.09525 10.1706 6.58229 10.1706H22.6134C26.2253 10.1706 27.972 7.94754 27.972 5.04271C27.972 2.43058 26.5405 0.385334 23.5961 0.0148195H0.02225C0.02225 0.025935 0 0.0333461 0 0.0518718V1.81182C0 1.90074 0.0482083 1.9452 0.137208 1.9452H21.2636C23.0584 1.9452 23.9039 3.242 23.9039 5.03159C23.9039 6.82488 23.0621 8.1291 21.2636 8.1291H4.54642C1.95058 8.1291 0 10.3225 0 13.2163V18.8444C0 18.9185 0.0370833 18.9778 0.103833 18.9926L0.089 19ZM59.4149 16.9622H80.6933C80.7564 16.9622 80.8046 17.0066 80.8046 17.0511V18.8407C80.8046 18.9296 80.8676 18.9741 80.9344 18.9741H84.7725C84.8392 18.9741 84.906 18.937 84.906 18.8407V17.0807C84.906 17.014 84.9802 16.9473 85.0543 16.9473H88.8665C88.9555 16.9473 89 16.8807 89 16.814V15.0207C89 14.954 88.9629 14.8873 88.8702 14.8873H85.0506C84.9765 14.8873 84.9134 14.8243 84.9134 14.7576V1.9415C84.9134 0.892941 84.5277 0.226016 83.8751 0.00370665H82.7626C82.3665 0.111974 81.988 0.276693 81.639 0.492786L58.7215 14.6279C57.8315 15.1837 57.5237 15.8062 57.7462 16.2767C57.9242 16.6621 58.4322 16.9511 59.4297 16.9511L59.4149 16.9622ZM62.7339 14.602L80.4968 3.63105C80.608 3.54212 80.8305 3.56435 80.8305 3.80889V14.7798C80.8305 14.8465 80.7712 14.9132 80.7045 14.9132H62.8414C62.6931 14.9132 62.6189 14.8688 62.6004 14.8243C62.5781 14.7354 62.6189 14.6687 62.7339 14.602Z" fill="white"/>
</svg>
