<svg width="89" height="19" viewBox="0 0 89 19" fill="none" xmlns="http://www.w3.org/2000/svg">
<path d="M38.7664 18.9778C39.4404 18.9778 40.1079 18.8457 40.7305 18.5891C41.3532 18.3325 41.919 17.9564 42.3954 17.4823C42.8719 17.0083 43.2497 16.4455 43.5073 15.8261C43.7649 15.2068 43.8973 14.543 43.8968 13.8728V5.10132C43.8968 4.69751 43.9768 4.29766 44.1323 3.92464C44.2879 3.55161 44.5158 3.21273 44.8032 2.92736C45.0905 2.642 45.4316 2.41575 45.8069 2.26155C46.1823 2.10736 46.5845 2.02824 46.9906 2.02873H56.9472C56.9652 2.02825 56.983 2.02424 56.9995 2.01694C57.0159 2.00963 57.0308 1.99918 57.0432 1.98616C57.0556 1.97314 57.0653 1.95782 57.0717 1.94108C57.0782 1.92433 57.0813 1.90648 57.0808 1.88856V0.132791C57.0808 0.0975736 57.0667 0.063796 57.0416 0.0388932C57.0166 0.0139904 56.9826 1.33368e-06 56.9472 1.33368e-06H44.9503C44.2763 -0.000483283 43.6087 0.131107 42.9858 0.387256C42.363 0.643404 41.797 1.01909 41.3202 1.49284C40.8434 1.96659 40.4651 2.52912 40.2071 3.14828C39.949 3.76744 39.8162 4.43109 39.8162 5.10132V13.8802C39.8162 14.6954 39.4907 15.4773 38.9113 16.0541C38.3319 16.6309 37.546 16.9555 36.7261 16.9564H26.9067C26.8889 16.9564 26.8712 16.96 26.8547 16.9669C26.8383 16.9738 26.8234 16.9839 26.8109 16.9966C26.7985 17.0094 26.7887 17.0244 26.7822 17.041C26.7758 17.0575 26.7727 17.0752 26.7732 17.0929V18.8487C26.7732 18.8839 26.7872 18.9177 26.8123 18.9426C26.8373 18.9675 26.8713 18.9815 26.9067 18.9815L38.7664 18.9778ZM61.191 7.12636V0.132791C61.191 0.0975736 61.2051 0.063796 61.2301 0.0388932C61.2552 0.0139904 61.2892 1.33368e-06 61.3246 1.33368e-06H88.4345C88.4702 -1.16584e-05 88.5046 0.0138588 88.5302 0.038661C88.5559 0.0634632 88.5708 0.0972384 88.5717 0.132791V1.88856C88.5717 1.9251 88.5574 1.96021 88.5318 1.98639C88.5061 2.01257 88.4712 2.02776 88.4345 2.02873H65.3977C65.3802 2.02873 65.3628 2.03216 65.3466 2.03883C65.3304 2.04551 65.3157 2.05529 65.3033 2.06762C65.2909 2.07995 65.2811 2.09459 65.2744 2.1107C65.2676 2.12681 65.2642 2.14407 65.2642 2.16151V6.72061C65.2632 6.91319 65.3006 7.10405 65.3743 7.28216C65.448 7.46026 65.5564 7.62208 65.6933 7.75826C65.8303 7.89443 65.993 8.00226 66.1722 8.0755C66.3513 8.14875 66.5432 8.18596 66.7369 8.18498H83.8828C85.2668 8.26548 86.5676 8.8689 87.5189 9.87173C88.4701 10.8746 89 12.201 89 13.5795C89 14.9581 88.4701 16.2845 87.5189 17.2873C86.5676 18.2902 85.2668 18.8936 83.8828 18.9741H61.3283C61.3104 18.9746 61.2927 18.9715 61.276 18.9651C61.2594 18.9586 61.2442 18.9489 61.2314 18.9365C61.2186 18.9242 61.2085 18.9094 61.2015 18.893C61.1946 18.8766 61.191 18.8591 61.191 18.8413V17.0929C61.1905 17.0752 61.1936 17.0575 61.2001 17.041C61.2066 17.0244 61.2164 17.0094 61.2288 16.9966C61.2412 16.9839 61.2561 16.9738 61.2726 16.9669C61.289 16.96 61.3067 16.9564 61.3246 16.9564H81.8388C82.2979 16.976 82.7562 16.9027 83.1861 16.741C83.6159 16.5794 84.0083 16.3327 84.3395 16.016C84.6707 15.6992 84.9339 15.3189 85.1131 14.8981C85.2923 14.4774 85.3837 14.0248 85.382 13.5679C85.3802 13.1109 85.2853 12.6591 85.1029 12.2397C84.9204 11.8203 84.6544 11.442 84.3207 11.1278C83.9871 10.8135 83.5928 10.5699 83.1617 10.4115C82.7307 10.2531 82.2718 10.1833 81.8128 10.2063H64.2811C63.8747 10.2063 63.4723 10.1266 63.0969 9.97174C62.7215 9.81686 62.3805 9.58988 62.0935 9.30378C61.8064 9.01768 61.579 8.67809 61.4241 8.30445C61.2692 7.93082 61.19 7.53047 61.191 7.12636ZM20.9565 8.18498C21.778 8.18498 22.5659 7.86048 23.1468 7.28288C23.7277 6.70527 24.054 5.92187 24.054 5.10501C24.054 4.28815 23.7277 3.50475 23.1468 2.92714C22.5659 2.34953 21.778 2.02504 20.9565 2.02504H0.138092C0.102323 2.02505 0.0679618 2.01118 0.0423253 1.98638C0.0166888 1.96157 0.00180233 1.9278 0.000835607 1.89225V0.136478C0.000828718 0.118725 0.00440198 0.101152 0.0113441 0.0847958C0.0182862 0.0684398 0.0284562 0.0536336 0.0412527 0.0412535C0.0540492 0.0288735 0.0692124 0.01917 0.0858456 0.0127179C0.102479 0.00626572 0.120244 0.00319476 0.138092 0.0036879H22.9597C24.2969 0.0394399 25.5674 0.59278 26.5005 1.54591C27.4337 2.49904 27.9558 3.77668 27.9558 5.10685C27.9558 6.43702 27.4337 7.71467 26.5005 8.6678C25.5674 9.62093 24.2969 10.1743 22.9597 10.21H7.17153C6.76542 10.21 6.36329 10.2896 5.98814 10.4443C5.61299 10.5989 5.27217 10.8256 4.98518 11.1113C4.69819 11.397 4.47065 11.7361 4.31557 12.1093C4.1605 12.4825 4.08093 12.8825 4.08142 13.2863V18.8671C4.08143 18.8849 4.07785 18.9025 4.07091 18.9188C4.06397 18.9352 4.0538 18.95 4.041 18.9624C4.0282 18.9747 4.01304 18.9844 3.99641 18.9909C3.97977 18.9973 3.96201 19.0004 3.94416 18.9999H0.138092C0.118923 19.0006 0.0998395 18.9971 0.0821382 18.9898C0.0644369 18.9824 0.0485336 18.9714 0.0355101 18.9574C0.0224865 18.9434 0.0126484 18.9268 0.00666508 18.9086C0.000681711 18.8905 -0.00130653 18.8713 0.000835607 18.8524V13.2715C0.00574524 11.9211 0.548944 10.6278 1.51135 9.67498C2.47376 8.72218 3.77685 8.18769 5.13495 8.18867L20.9565 8.18498Z" fill="white"/>
</svg>
