<svg width="19" height="20" viewBox="0 0 19 20" fill="none" xmlns="http://www.w3.org/2000/svg">
<path d="M1.94278 6.78543C2.16547 6.56281 2.46746 6.43774 2.78234 6.43774C3.09722 6.43774 3.39921 6.56281 3.6219 6.78543L9.50003 12.6636L15.3782 6.78543C15.6021 6.56912 15.9021 6.44942 16.2134 6.45213C16.5248 6.45483 16.8226 6.57972 17.0428 6.79989C17.263 7.02007 17.3879 7.31791 17.3906 7.62926C17.3933 7.94062 17.2736 8.24059 17.0573 8.46455L10.3396 15.1822C10.1169 15.4049 9.81491 15.5299 9.50003 15.5299C9.18514 15.5299 8.88315 15.4049 8.66047 15.1822L1.94278 8.46455C1.72015 8.24186 1.59509 7.93987 1.59509 7.62499C1.59509 7.31011 1.72015 7.00812 1.94278 6.78543Z" fill="#0AAEFE"/>
</svg>
