<svg width="22" height="13" viewBox="0 0 22 13" fill="none" xmlns="http://www.w3.org/2000/svg">
<path d="M20.3712 0.986253L10.9999 10.1213L1.62868 0.986253C1.46125 0.822711 1.23648 0.731153 1.00243 0.731153C0.768378 0.731153 0.543613 0.822711 0.376179 0.986253C0.295108 1.06569 0.230702 1.1605 0.186733 1.26513C0.142765 1.36977 0.120117 1.48213 0.120117 1.59563C0.120117 1.70913 0.142765 1.82148 0.186733 1.92612C0.230702 2.03076 0.295108 2.12557 0.376179 2.205L10.3456 11.925C10.5206 12.0957 10.7554 12.1912 10.9999 12.1912C11.2444 12.1912 11.4792 12.0957 11.6543 11.925L21.6237 2.20688C21.7053 2.12739 21.7702 2.03234 21.8145 1.92736C21.8588 1.82237 21.8817 1.70958 21.8817 1.59563C21.8817 1.48168 21.8588 1.36888 21.8145 1.2639C21.7702 1.15891 21.7053 1.06387 21.6237 0.984377C21.4562 0.820835 21.2315 0.729279 20.9974 0.729279C20.7634 0.729279 20.5386 0.820835 20.3712 0.984377V0.986253Z" fill="white"/>
</svg>
