<svg width="22" height="21" viewBox="0 0 22 21" fill="none" xmlns="http://www.w3.org/2000/svg">
<path fill-rule="evenodd" clip-rule="evenodd" d="M3.7872 2.21733C3.71026 2.20663 3.6111 2.20477 3.25459 2.20477H1.7036C1.26728 2.20477 0.913574 1.85107 0.913574 1.41474C0.913574 0.978426 1.26728 0.624716 1.7036 0.624716H3.25459C3.27196 0.624716 3.28908 0.624716 3.30599 0.624706C3.58703 0.624611 3.80497 0.624537 4.00498 0.652367C5.11444 0.806759 6.03545 1.58698 6.37014 2.65595C6.38652 2.70828 6.40109 2.76223 6.41455 2.81864L17.8755 4.43666C17.9113 4.44171 17.9466 4.44667 17.9814 4.45154C18.5454 4.53079 18.9805 4.59192 19.3407 4.74748C20.3209 5.17079 20.9888 6.09902 21.0787 7.16296C21.1118 7.55395 21.0315 7.98591 20.9274 8.5459C20.921 8.58042 20.9145 8.61543 20.9078 8.65096C20.9017 8.68441 20.8956 8.71738 20.8896 8.74989C20.7574 9.46469 20.6668 9.95468 20.483 10.374C19.9837 11.5133 18.9768 12.3509 17.7655 12.6344C17.3198 12.7388 16.8215 12.7386 16.0946 12.7384C16.0615 12.7384 16.028 12.7384 15.994 12.7384H8.08467C8.12583 12.9554 8.1652 13.1372 8.20805 13.2953C8.29694 13.6233 8.38237 13.7738 8.4709 13.8739C8.55477 13.9687 8.65188 14.051 8.75924 14.1182C8.87257 14.189 9.03505 14.2486 9.37316 14.2823C9.72618 14.3176 10.186 14.3185 10.8764 14.3185H18.9086C19.3449 14.3185 19.6986 14.6722 19.6986 15.1085C19.6986 15.5448 19.3449 15.8985 18.9086 15.8985H10.8377C10.1961 15.8985 9.657 15.8986 9.21622 15.8546C8.75172 15.8082 8.32069 15.7075 7.92151 15.4579C7.68532 15.3102 7.47167 15.1292 7.28716 14.9205C6.97532 14.5678 6.80512 14.1592 6.68301 13.7087C6.56715 13.2811 6.47853 12.7493 6.37308 12.1164L4.96223 3.65135C4.90362 3.2997 4.88548 3.20219 4.86227 3.12805C4.71014 2.64216 4.2915 2.28752 3.7872 2.21733Z" fill="white"/>
<path d="M19.6108 18.7953C19.6108 19.6679 18.9033 20.3753 18.0307 20.3753C17.1581 20.3753 16.4507 19.6679 16.4507 18.7953C16.4507 17.9227 17.1581 17.2152 18.0307 17.2152C18.9033 17.2152 19.6108 17.9227 19.6108 18.7953Z" fill="white"/>
<path d="M10.1306 18.7953C10.1306 19.6679 9.42315 20.3753 8.55051 20.3753C7.67787 20.3753 6.97046 19.6679 6.97046 18.7953C6.97046 17.9227 7.67787 17.2152 8.55051 17.2152C9.42315 17.2152 10.1306 17.9227 10.1306 18.7953Z" fill="white"/>
</svg>
