<svg width="43" height="42" viewBox="0 0 43 42" fill="none" xmlns="http://www.w3.org/2000/svg">
<path d="M24.0465 13.0463C24.4163 12.6942 24.9083 12.4996 25.4189 12.5035C25.9294 12.5073 26.4185 12.7094 26.7829 13.067C27.1473 13.4246 27.3585 13.9098 27.372 14.4201C27.3855 14.9305 27.2002 15.4262 26.8552 15.8025L16.3815 28.9013C16.2014 29.0953 15.984 29.2509 15.7424 29.359C15.5007 29.4671 15.2398 29.5253 14.9751 29.5302C14.7105 29.5351 14.4476 29.4866 14.2021 29.3875C13.9566 29.2885 13.7336 29.141 13.5465 28.9538L6.60073 22.008C6.4073 21.8278 6.25216 21.6104 6.14456 21.369C6.03695 21.1275 5.97909 20.8668 5.97443 20.6024C5.96976 20.3381 6.01839 20.0755 6.11741 19.8303C6.21643 19.5852 6.36381 19.3625 6.55075 19.1756C6.7377 18.9886 6.96039 18.8412 7.20554 18.7422C7.45068 18.6432 7.71326 18.5946 7.9776 18.5992C8.24195 18.6039 8.50264 18.6618 8.74414 18.7694C8.98564 18.877 9.20299 19.0321 9.38323 19.2255L14.88 24.7197L23.994 13.104C24.0103 13.0838 24.0279 13.0645 24.0465 13.0463ZM21.6315 26.5388L24.0465 28.9538C24.2336 29.1406 24.4564 29.2877 24.7016 29.3865C24.9469 29.4853 25.2095 29.5337 25.4738 29.5288C25.7381 29.5239 25.9988 29.4658 26.2402 29.358C26.4816 29.2502 26.6988 29.0949 26.8789 28.9013L37.3579 15.8025C37.5461 15.6167 37.695 15.3948 37.7955 15.1502C37.8961 14.9055 37.9464 14.6431 37.9433 14.3786C37.9402 14.1141 37.8839 13.8529 37.7776 13.6107C37.6713 13.3684 37.5173 13.1501 37.3248 12.9687C37.1323 12.7873 36.9052 12.6465 36.6571 12.5548C36.4089 12.4631 36.1449 12.4224 35.8806 12.435C35.6164 12.4477 35.3574 12.5134 35.1192 12.6284C34.881 12.7433 34.6683 12.9051 34.494 13.104L25.3774 24.7197L24.1042 23.4439L21.6289 26.5388H21.6315Z" fill="white"/>
</svg>
