<svg width="22" height="26" viewBox="0 0 22 26" fill="none" xmlns="http://www.w3.org/2000/svg">
<path d="M8.72457 10.9882C8.00734 10.9882 7.44229 11.6132 7.44229 12.3763C7.44229 13.1368 8.02057 13.7645 8.72457 13.7645C9.44048 13.7645 10.0055 13.1368 10.0055 12.3763C10.0201 11.6118 9.44048 10.9882 8.72457 10.9882ZM13.3138 10.9882C12.5966 10.9882 12.0315 11.6132 12.0315 12.3763C12.0315 13.1368 12.6098 13.7645 13.3138 13.7645C14.0297 13.7645 14.5948 13.1368 14.5948 12.3763C14.5934 11.6118 14.0297 10.9882 13.3138 10.9882Z" fill="#0AAEFE"/>
<path d="M19.4235 0.5H2.57648C1.15657 0.5 0 1.65 0 3.075V19.975C0 21.4 1.15657 22.55 2.57648 22.55H16.8325L16.1642 20.2355L17.7747 21.7237L19.2952 23.1237L22 25.5V3.075C22 1.65 20.8434 0.5 19.4235 0.5ZM14.5696 16.825C14.5696 16.825 14.1171 16.2882 13.7412 15.8105C15.3874 15.3474 16.016 14.3237 16.016 14.3237C15.4999 14.6605 15.0103 14.9 14.5696 15.0632C13.9411 15.3237 13.3389 15.4987 12.7474 15.6C11.5406 15.8237 10.4343 15.7618 9.49077 15.5868C8.77486 15.4487 8.15952 15.2487 7.64343 15.0474C7.35495 14.9355 7.03868 14.8 6.72638 14.625C6.688 14.5974 6.65095 14.5868 6.61389 14.5618C6.58743 14.5487 6.57552 14.5368 6.56229 14.5224C6.336 14.3987 6.21029 14.3118 6.21029 14.3118C6.21029 14.3118 6.81371 15.3118 8.41095 15.7868C8.0338 16.2605 7.568 16.825 7.568 16.825C4.79038 16.7368 3.7357 14.925 3.7357 14.925C3.7357 10.9 5.54598 7.63816 5.54598 7.63816C7.35627 6.28684 9.07789 6.325 9.07789 6.325L9.20361 6.475C6.94075 7.12632 5.89666 8.11316 5.89666 8.11316C5.89666 8.11316 6.17456 7.96316 6.63904 7.75132C7.98352 7.16447 9.05143 7.00132 9.49209 6.96316C9.56752 6.95132 9.63104 6.93816 9.70647 6.93816C10.474 6.83816 11.3408 6.81316 12.2446 6.91316C13.4395 7.05132 14.7231 7.40132 16.0292 8.11316C16.0292 8.11316 15.0354 7.17632 12.8983 6.52632L13.0743 6.32632C13.0743 6.32632 14.7972 6.28816 16.6062 7.63947C16.6062 7.63947 18.4165 10.9013 18.4165 14.9263C18.4165 14.9263 17.3486 16.7368 14.5696 16.825Z" fill="#0AAEFE"/>
</svg>
