<svg width="24" height="23" viewBox="0 0 24 23" fill="none" xmlns="http://www.w3.org/2000/svg">
<path d="M11.8707 4.07302L10.8068 2.98068C8.30945 0.416556 3.73026 1.3014 2.07725 4.52508C1.30119 6.04132 1.12609 8.23046 2.54318 11.0243C3.90833 13.7144 6.74843 16.9366 11.8707 20.4463C16.993 16.9366 19.8316 13.7144 21.1982 11.0243C22.6153 8.22897 22.4417 6.04132 21.6642 4.52508C20.0112 1.3014 15.432 0.415074 12.9346 2.9792L11.8707 4.07302ZM11.8707 22.2323C-10.8813 7.21518 4.86542 -4.50567 11.6096 1.69417C11.6986 1.77569 11.7861 1.86017 11.8707 1.94762C11.9544 1.86025 12.0416 1.7762 12.1319 1.69565C18.8745 -4.50863 34.6227 7.2137 11.8707 22.2323Z" fill="#DF6868"/>
<path d="M14 1L12 3L9 1H5.5L3.5 1.5L2 3.5L1 5.5V9L2.5 13L7.5 18L12 21.5L14 20L19.5 15L22.5 11L23 7.5L22.5 4.5L20.5 2L17 0.5L14 1Z" fill="#DF6868"/>
</svg>
