<svg width="24" height="24" viewBox="0 0 24 24" fill="none" xmlns="http://www.w3.org/2000/svg">
<path d="M11.8851 4.88215L10.8212 3.78981C8.32386 1.22568 3.74467 2.11053 2.09165 5.33421C1.31559 6.85045 1.1405 9.03958 2.55758 11.8334C3.92273 14.5235 6.76284 17.7457 11.8851 21.2555C17.0074 17.7457 19.846 14.5235 21.2127 11.8334C22.6297 9.0381 22.4561 6.85045 21.6786 5.33421C20.0256 2.11053 15.4464 1.2242 12.949 3.78832L11.8851 4.88215ZM11.8851 23.0415C-10.8669 8.02431 4.87982 -3.69654 11.624 2.5033C11.713 2.58482 11.8005 2.6693 11.8851 2.75675C11.9688 2.66938 12.056 2.58533 12.1463 2.50478C18.8889 -3.6995 34.6371 8.02283 11.8851 23.0415Z" fill="#DF6868"/>
</svg>
