<svg width="24" height="24" viewBox="0 0 24 24" fill="none" xmlns="http://www.w3.org/2000/svg">
<path d="M11.9907 5.8177C8.58685 5.8177 5.82941 8.57219 5.82941 11.9694C5.82941 15.3679 8.58685 18.1224 11.9907 18.1224C15.3918 18.1224 18.1519 15.3679 18.1519 11.9694C18.1519 8.57219 15.3918 5.8177 11.9907 5.8177ZM11.9907 15.9667C9.77965 15.9667 7.98712 14.177 7.98712 11.9707C7.98712 9.76314 9.77965 7.97472 11.9907 7.97472C14.2017 7.97472 15.9916 9.76314 15.9916 11.9707C15.9916 14.177 14.2017 15.9667 11.9907 15.9667Z" fill="#0AAEFE"/>
<path d="M18.3972 7.02595C19.1906 7.02595 19.8339 6.38372 19.8339 5.59148C19.8339 4.79925 19.1906 4.15702 18.3972 4.15702C17.6037 4.15702 16.9605 4.79925 16.9605 5.59148C16.9605 6.38372 17.6037 7.02595 18.3972 7.02595Z" fill="#0AAEFE"/>
<path d="M23.3643 4.13307C22.7392 2.52428 21.4665 1.25216 19.8552 0.630738C18.9236 0.280772 17.9387 0.0931469 16.9418 0.0718562C15.6584 0.0159679 15.2519 0 11.9973 0C8.74278 0 8.32563 -1.33843e-07 7.05287 0.0718562C6.05864 0.0918162 5.07375 0.279441 4.14216 0.630738C2.52954 1.25216 1.25677 2.52428 0.633052 4.13307C0.282541 5.06454 0.0946246 6.04657 0.0746335 7.04192C0.0173256 8.32202 0 8.72788 0 11.9787C0 15.2282 -9.92969e-09 15.642 0.0746335 16.9155C0.0946246 17.9108 0.282541 18.8929 0.633052 19.8257C1.25811 21.4331 2.53088 22.7053 4.14349 23.328C5.07108 23.69 6.05597 23.8949 7.05553 23.9268C8.33896 23.9827 8.74545 24 12 24C15.2546 24 15.6717 24 16.9445 23.9268C17.94 23.9069 18.9249 23.7179 19.8578 23.3693C21.4691 22.7452 22.7419 21.4744 23.3669 19.8656C23.7175 18.9341 23.9054 17.9521 23.9254 16.9568C23.9827 15.6766 24 15.2708 24 12.02C24 8.76913 24 8.35662 23.9254 7.08317C23.908 6.07452 23.7215 5.07518 23.3643 4.13307ZM21.741 16.817C21.7317 17.5835 21.5931 18.3433 21.3265 19.0632C20.92 20.1104 20.0924 20.9381 19.0449 21.34C18.3319 21.6048 17.5802 21.7432 16.8192 21.7538C15.5531 21.8124 15.1959 21.827 11.9494 21.827C8.70013 21.827 8.36828 21.827 7.07819 21.7538C6.31986 21.7445 5.56553 21.6048 4.85384 21.34C3.80231 20.9395 2.96935 20.1118 2.56286 19.0632C2.30164 18.3526 2.16037 17.6008 2.14838 16.8423C2.09107 15.5782 2.07774 15.2216 2.07774 11.98C2.07774 8.73719 2.07774 8.40585 2.14838 7.11643C2.15771 6.34997 2.29631 5.59148 2.56286 4.87159C2.96935 3.82169 3.80231 2.99534 4.85384 2.59348C5.56553 2.33001 6.31986 2.19029 7.07819 2.17964C8.34562 2.12242 8.70147 2.10645 11.9494 2.10645C15.1972 2.10645 15.5304 2.10645 16.8192 2.17964C17.5802 2.18896 18.3319 2.32868 19.0449 2.59348C20.0924 2.99667 20.92 3.82435 21.3265 4.87159C21.5877 5.58217 21.729 6.334 21.741 7.09248C21.7983 8.35795 21.813 8.71324 21.813 11.9561C21.813 15.1976 21.813 15.5462 21.7557 16.8184H21.741V16.817Z" fill="#0AAEFE"/>
</svg>
