<svg width="24" height="24" viewBox="0 0 24 24" fill="none" xmlns="http://www.w3.org/2000/svg">
<path d="M17.0156 8.25L11.5312 21.75H13.7456L14.8936 19.0312H19.1377L20.2856 21.75H22.5L17.0156 8.25ZM15.7645 16.9688L17.0156 13.118L18.2667 16.9688H15.7645Z" fill="#151D27"/>
<path d="M12.75 15C12.7383 14.9911 11.7848 14.2608 10.6209 12.9998C12.4762 10.4855 13.5272 7.6275 13.9561 6.28125H16.5V4.21875H10.0312V2.25H7.96875V4.21875H1.5V6.28125H11.7773C11.3311 7.54453 10.5094 9.53906 9.25594 11.3606C7.72406 9.32438 7.04625 7.80375 7.03734 7.78781L6.70312 7.125L4.92188 8.15625L5.24391 8.80594C5.28563 8.87906 6.04969 10.5825 7.80844 12.8639C7.85156 12.9206 7.89516 12.9759 7.93875 13.0312C5.60812 15.6966 3.75984 16.7386 3.73594 16.7564L3 17.25L4.07812 18.9375L4.98281 18.3998C5.08594 18.3216 6.92016 17.2748 9.29531 14.6133C10.4447 15.8452 11.3212 16.5272 11.3719 16.5666L11.9531 16.9688L12.75 15Z" fill="#151D27"/>
</svg>
