<svg width="24" height="24" viewBox="0 0 24 24" fill="none" xmlns="http://www.w3.org/2000/svg">
<path d="M24 24H18.6667V15C18.6667 13.5885 17.0828 12.4077 15.6713 12.4077C14.2599 12.4077 13.3333 13.5885 13.3333 15V24H8.00001V8H13.3333V10.6667C14.2164 9.23809 16.4752 8.31636 18.0333 8.31636C21.3287 8.31636 24 11.0381 24 14.3333V24ZM5.33333 24H0V8H5.33333V24ZM2.66668 0C4.13944 0 5.33334 1.19391 5.33334 2.66667C5.33334 4.13943 4.13944 5.33333 2.66668 5.33333C1.19392 5.33333 1.33514e-05 4.13943 1.33514e-05 2.66667C1.33514e-05 1.19391 1.19392 0 2.66668 0Z" fill="#0AAEFE"/>
</svg>
