<svg width="20" height="14" viewBox="0 0 20 14" fill="none" xmlns="http://www.w3.org/2000/svg">
<path d="M19.4247 12.5046C19.4247 13.0088 19.0159 13.4167 18.5126 13.4167H11.1701C10.9282 13.4167 10.6962 13.3206 10.5252 13.1496C10.3542 12.9785 10.2581 12.7465 10.2581 12.5046C10.2581 12.2627 10.3542 12.0307 10.5252 11.8597C10.6962 11.6886 10.9282 11.5925 11.1701 11.5925H18.5126C19.0168 11.5925 19.4247 12.0004 19.4247 12.5046Z" fill="#0AAEFE"/>
<path d="M19.4246 7.0001C19.4246 7.50426 19.0158 7.91218 18.5126 7.91218H2.00339C1.76149 7.91218 1.5295 7.81608 1.35845 7.64504C1.1874 7.47399 1.09131 7.242 1.09131 7.0001C1.09131 6.7582 1.1874 6.5262 1.35845 6.35516C1.5295 6.18411 1.76149 6.08801 2.00339 6.08801H18.5126C19.0167 6.08801 19.4246 6.49685 19.4246 7.0001Z" fill="#0AAEFE"/>
<path d="M18.5126 2.40754C18.7545 2.40754 18.9865 2.31145 19.1575 2.1404C19.3286 1.96935 19.4247 1.73736 19.4247 1.49546C19.4247 1.25356 19.3286 1.02157 19.1575 0.850517C18.9865 0.679468 18.7545 0.583374 18.5126 0.583374L1.87888 0.583374C1.7591 0.583374 1.6405 0.606966 1.52984 0.652802C1.41918 0.698639 1.31863 0.765822 1.23394 0.850517C1.14925 0.935212 1.08206 1.03576 1.03623 1.14642C0.990389 1.25708 0.966797 1.37568 0.966797 1.49546C0.966797 1.61523 0.990389 1.73384 1.03623 1.8445C1.08206 1.95516 1.14925 2.0557 1.23394 2.1404C1.31863 2.22509 1.41918 2.29228 1.52984 2.33811C1.6405 2.38395 1.7591 2.40754 1.87888 2.40754H18.5126Z" fill="#0AAEFE"/>
</svg>
