<svg width="26" height="25" viewBox="0 0 26 25" fill="none" xmlns="http://www.w3.org/2000/svg">
<path d="M16.7422 3.15332C15.792 2.12744 14.4649 1.5625 13 1.5625C11.5274 1.5625 10.1958 2.12402 9.25005 3.14355C8.29399 4.17432 7.82817 5.5752 7.93755 7.08789C8.15434 10.0723 10.4253 12.5 13 12.5C15.5748 12.5 17.8418 10.0728 18.0621 7.08887C18.1729 5.58984 17.7041 4.19189 16.7422 3.15332Z" fill="#59697C"/>
<path d="M21.5935 23.4375H4.40604C4.18107 23.4404 3.95828 23.3932 3.75387 23.2992C3.54947 23.2051 3.36859 23.0668 3.2244 22.894C2.90702 22.5146 2.77909 21.9966 2.87381 21.4727C3.28592 19.1865 4.57206 17.2661 6.59354 15.918C8.38944 14.7212 10.6643 14.0625 12.9998 14.0625C15.3352 14.0625 17.6101 14.7217 19.406 15.918C21.4275 17.2656 22.7137 19.186 23.1258 21.4722C23.2205 21.9961 23.0926 22.5142 22.7752 22.8936C22.631 23.0664 22.4502 23.2048 22.2458 23.2989C22.0414 23.393 21.8185 23.4404 21.5935 23.4375Z" fill="#59697C"/>
</svg>
