<svg width="28" height="23" viewBox="0 0 28 23" fill="none" xmlns="http://www.w3.org/2000/svg">
<path d="M27.9456 3.01643C26.9195 3.47156 25.8165 3.77915 24.6592 3.91745C25.8404 3.20926 26.7479 2.08789 27.1751 0.751625C26.0693 1.40744 24.8448 1.88362 23.5413 2.14018C22.4976 1.02808 21.0105 0.333252 19.3647 0.333252C16.2045 0.333252 13.6423 2.89521 13.6423 6.05532C13.6423 6.50378 13.6929 6.94053 13.7905 7.35938C9.0348 7.12072 4.81835 4.84263 1.99613 1.3806C1.50355 2.22572 1.22136 3.20867 1.22136 4.25737C1.22136 6.24264 2.23153 7.99409 3.76699 9.02032C2.82907 8.99045 1.94663 8.73312 1.1752 8.30453C1.17465 8.32844 1.17465 8.35232 1.17465 8.37645C1.17465 11.149 3.14712 13.4617 5.7648 13.9874C5.28467 14.1182 4.77913 14.1882 4.25727 14.1882C3.88855 14.1882 3.53008 14.1522 3.18063 14.0855C3.90883 16.3587 6.02205 18.0133 8.52607 18.0593C6.56769 19.5942 4.10037 20.509 1.41939 20.509C0.957508 20.509 0.502028 20.4818 0.0543747 20.4289C2.58672 22.0525 5.59456 22.9999 8.82601 22.9999C19.3512 22.9999 25.1069 14.2806 25.1069 6.71882C25.1069 6.47077 25.1013 6.22398 25.0903 5.97852C26.2084 5.17173 27.1785 4.16395 27.9456 3.01643Z" fill="#0AAEFE"/>
</svg>
