<svg width="148" height="50" viewBox="0 0 148 50" fill="none" xmlns="http://www.w3.org/2000/svg">
<rect width="98" height="50" fill="#2E3A59"/>
<path d="M18.21 27.3975H12.7754V23.9697H18.21C19.0498 23.9697 19.7334 23.833 20.2607 23.5596C20.7881 23.2764 21.1738 22.8857 21.418 22.3877C21.6621 21.8896 21.7842 21.3281 21.7842 20.7031C21.7842 20.0684 21.6621 19.4775 21.418 18.9307C21.1738 18.3838 20.7881 17.9443 20.2607 17.6123C19.7334 17.2803 19.0498 17.1143 18.21 17.1143H14.2988V35H9.9043V13.6719H18.21C19.8799 13.6719 21.3105 13.9746 22.502 14.5801C23.7031 15.1758 24.6211 16.001 25.2559 17.0557C25.8906 18.1104 26.208 19.3164 26.208 20.6738C26.208 22.0508 25.8906 23.2422 25.2559 24.248C24.6211 25.2539 23.7031 26.0303 22.502 26.5771C21.3105 27.124 19.8799 27.3975 18.21 27.3975ZM33.9131 13.6719V35H29.5332V13.6719H33.9131ZM41.9111 13.6719L45.9248 21.1133L49.9385 13.6719H54.9629L48.7666 24.248L55.124 35H50.0557L45.9248 27.4121L41.7939 35H36.6963L43.0684 24.248L36.8574 13.6719H41.9111ZM71.6475 31.5723V35H60.2949V31.5723H71.6475ZM61.7305 13.6719V35H57.3359V13.6719H61.7305ZM70.168 22.3584V25.6982H60.2949V22.3584H70.168ZM71.6328 13.6719V17.1143H60.2949V13.6719H71.6328ZM87.9219 31.5723V35H77.1846V31.5723H87.9219ZM78.6055 13.6719V35H74.2109V13.6719H78.6055Z" fill="white"/>
<rect x="98" width="50" height="50" fill="#0AAEFE"/>
<path d="M140 24.5L113.75 39.6554L113.75 9.34455L140 24.5Z" fill="white"/>
</svg>
