<svg width="18" height="17" viewBox="0 0 18 17" fill="none" xmlns="http://www.w3.org/2000/svg">
<path fill-rule="evenodd" clip-rule="evenodd" d="M11.3763 9.47687C13.0462 7.13367 12.8301 3.85958 10.7279 1.75736C8.38472 -0.585787 4.58573 -0.585786 2.24259 1.75736C-0.100557 4.1005 -0.100557 7.89949 2.24259 10.2426C4.34481 12.3449 7.6189 12.561 9.9621 10.8911L15.6776 16.6066L17.0918 15.1924L11.3763 9.47687ZM9.31366 3.17157C10.8758 4.73367 10.8758 7.26633 9.31366 8.82843C7.75156 10.3905 5.2189 10.3905 3.6568 8.82843C2.09471 7.26633 2.09471 4.73367 3.6568 3.17157C5.2189 1.60948 7.75156 1.60948 9.31366 3.17157Z" fill="#2E3A59"/>
</svg>
