<svg width="22" height="19" viewBox="0 0 22 19" fill="none" xmlns="http://www.w3.org/2000/svg">
<path d="M7.12508 19C7.99953 19 8.70841 18.2912 8.70841 17.4167C8.70841 16.5423 7.99953 15.8334 7.12508 15.8334C6.25063 15.8334 5.54175 16.5423 5.54175 17.4167C5.54175 18.2912 6.25063 19 7.12508 19Z" fill="#2E3A59"/>
<path d="M18.2083 19C19.0828 19 19.7917 18.2912 19.7917 17.4167C19.7917 16.5423 19.0828 15.8334 18.2083 15.8334C17.3339 15.8334 16.625 16.5423 16.625 17.4167C16.625 18.2912 17.3339 19 18.2083 19Z" fill="#2E3A59"/>
<path d="M21.0187 2.80943C20.9075 2.67338 20.7674 2.56381 20.6086 2.48867C20.4497 2.41353 20.2761 2.3747 20.1004 2.375H5.04143L4.73812 0.654115C4.70578 0.470808 4.60989 0.304759 4.46728 0.185135C4.32467 0.0655105 4.14447 -3.91091e-05 3.95833 1.75058e-08H0.791667C0.581703 1.75058e-08 0.38034 0.0834077 0.231874 0.231874C0.0834074 0.38034 0 0.581703 0 0.791667C0 1.00163 0.0834074 1.20299 0.231874 1.35146C0.38034 1.49993 0.581703 1.58333 0.791667 1.58333H3.29432L5.55354 14.3875C5.58588 14.5709 5.68178 14.7369 5.82439 14.8565C5.967 14.9762 6.14719 15.0417 6.33333 15.0417H19C19.21 15.0417 19.4113 14.9583 19.5598 14.8098C19.7083 14.6613 19.7917 14.46 19.7917 14.25C19.7917 14.04 19.7083 13.8387 19.5598 13.6902C19.4113 13.5417 19.21 13.4583 19 13.4583H6.99734L6.71828 11.875H18.6754C18.95 11.8746 19.216 11.7795 19.4284 11.6055C19.6408 11.4316 19.7866 11.1896 19.8411 10.9205L21.2661 3.79555C21.3005 3.62311 21.2961 3.44521 21.2533 3.27467C21.2105 3.10414 21.1304 2.94523 21.0187 2.80943Z" fill="#2E3A59"/>
</svg>
