<svg width="22" height="18" viewBox="0 0 22 18" fill="none" xmlns="http://www.w3.org/2000/svg">
<path d="M21.8044 13.4949C21.374 14.0387 20.3208 14.4255 20.3208 14.4255L12.4888 17.2421V15.1648L18.2528 13.1094C18.9073 12.8754 19.0077 12.5423 18.4755 12.3688C17.9448 12.194 16.9837 12.2449 16.3306 12.479L12.4888 13.8336V11.6778L12.7102 11.6034C12.7102 11.6034 13.8198 11.2097 15.3804 11.0362C16.9411 10.8642 18.8523 11.0596 20.3524 11.6282C22.0436 12.1651 22.2334 12.9525 21.8044 13.4949ZM13.2341 9.95972V4.64593C13.2341 4.02231 13.12 3.44826 12.5356 3.28582C12.0873 3.14127 11.8096 3.55839 11.8096 4.18063V17.4844L8.22637 16.3459V0.484375C9.74986 0.767961 11.9691 1.437 13.1626 1.84036C16.1972 2.88246 17.2257 4.18063 17.2257 7.10596C17.2257 9.95696 15.4684 11.0376 13.2341 9.95834V9.95972ZM1.65117 14.95C-0.084068 14.4572 -0.372816 13.4385 0.417803 12.852C1.1493 12.3096 2.39229 11.9021 2.39229 11.9021L7.53063 10.0712V12.1568L3.8319 13.4825C3.18016 13.7165 3.07978 14.0483 3.61053 14.2231C4.14128 14.3966 5.10239 14.347 5.75551 14.113L7.52925 13.4674V15.3341L7.17588 15.3933C5.32544 15.6932 3.42999 15.5407 1.65117 14.9486V14.95Z" fill="#59697C"/>
</svg>
