<svg width="19" height="17" viewBox="0 0 19 17" fill="none" xmlns="http://www.w3.org/2000/svg">
<path d="M7.36408 0.985174C6.42675 1.00029 5.31208 1.22699 3.92746 1.7741L2.12008 7.78101C3.5815 7.20593 4.74129 6.93918 5.71188 6.94976C6.96857 6.99584 8.17851 7.41685 9.17146 8.15356L10.9891 2.16857C9.99162 1.52246 8.92525 0.960237 7.36329 0.985174H7.36408ZM11.9162 2.80712L10.1302 8.81402C11.7262 9.84703 13.6452 10.6987 17.1815 9.18657L19 3.19025H18.9668C15.2847 4.64947 13.4995 3.82955 11.9154 2.80712H11.9162ZM5.23846 8.05456C4.30113 8.06816 3.18725 8.2926 1.80658 8.83593L0 14.8625C3.68125 13.404 5.43321 14.2557 7.02842 15.2781L8.86983 9.24022C7.87233 8.59412 6.80121 8.03114 5.23925 8.05381L5.23846 8.05456ZM9.81746 9.82588L9.82617 9.83192L9.82854 9.82588H9.81746ZM9.82617 9.83192L8.01008 15.8003C9.60529 16.8333 11.3794 17.654 15.0607 16.1947L16.8791 10.2098C13.205 11.666 11.4309 10.8521 9.82617 9.83192Z" fill="#59697C"/>
</svg>
