<svg width="17" height="17" viewBox="0 0 17 17" fill="none" xmlns="http://www.w3.org/2000/svg">
<g clip-path="url(#clip0_277_1025)">
<path d="M7.65221 16.9511C6.30543 16.8205 5.01141 16.3885 3.87821 15.6911C2.92409 15.1061 2.7084 14.8651 2.7084 14.3851C2.7084 13.4201 3.83678 11.7291 5.76734 9.80213C6.86278 8.70713 8.39065 7.42414 8.55534 7.45914C8.87621 7.52713 11.4432 9.88213 12.4037 10.9901C13.9231 12.7431 14.6222 14.1791 14.2673 14.8191C13.9975 15.3051 12.323 16.2561 11.0937 16.6211C10.08 16.9221 8.74871 17.0501 7.65221 16.9511ZM1.41959 13.3811C0.625901 12.2371 0.225339 11.1111 0.0319637 9.48113C-0.0317863 8.94213 -0.00841126 8.63514 0.177526 7.53114C0.409151 6.15414 1.24215 4.56114 2.24409 3.58114C2.67015 3.16413 2.7084 3.15414 3.22796 3.31814C3.86015 3.51814 4.53484 3.95614 5.57928 4.84614L6.18915 5.36514L5.85659 5.75013C4.30959 7.53714 2.67759 10.0701 2.06134 11.6371C1.72665 12.4891 1.59171 13.3441 1.73621 13.7001C1.8329 13.9401 1.74365 13.8501 1.41746 13.3811H1.41959ZM15.3394 13.5761C15.418 13.2161 15.3192 12.5561 15.0865 11.8891C14.584 10.4461 12.9031 7.76114 11.3593 5.93614L10.8737 5.36114L11.3986 4.90714C12.085 4.31414 12.562 3.95914 13.0773 3.65714C13.4822 3.42014 14.0623 3.20914 14.3109 3.20914C14.465 3.20914 15.0058 3.73714 15.4425 4.31314C16.1373 5.24507 16.6228 6.30058 16.8694 7.41514C17.032 8.14314 17.0458 9.70113 16.8949 10.4271C16.7533 11.0774 16.5396 11.7118 16.2574 12.3201C16.0672 12.7131 15.5944 13.4761 15.3862 13.7241C15.2799 13.8521 15.2788 13.8511 15.3394 13.5761ZM7.79353 2.93614C7.08165 2.59614 5.98303 2.23114 5.37528 2.13314C5.10841 2.09573 4.83848 2.08133 4.56884 2.09014C4.0684 2.11414 4.09071 2.09014 4.89396 1.73214C5.52364 1.44752 6.18911 1.23919 6.87446 1.11214C7.72446 0.943135 9.32459 0.942135 10.1618 1.10714C11.065 1.28714 12.1307 1.65914 12.731 2.00714L12.9095 2.11014L12.5004 2.09014C11.6865 2.05214 10.5029 2.36014 9.23003 2.94314C8.84646 3.11914 8.51178 3.25914 8.48734 3.25514C8.25241 3.1553 8.02174 3.04892 7.79353 2.93614Z" fill="#59697C"/>
</g>
<defs>
<clipPath id="clip0_277_1025">
<rect width="17" height="16" fill="white" transform="translate(0 0.984375)"/>
</clipPath>
</defs>
</svg>
